<?xml version="1.0" encoding="UTF-8" standalone="no"?>
<svg width="59px" height="34px" viewBox="0 0 59 34" version="1.1" xmlns="http://www.w3.org/2000/svg" xmlns:xlink="http://www.w3.org/1999/xlink" xmlns:sketch="http://www.bohemiancoding.com/sketch/ns">
    <!-- Generator: Sketch 3.3 (11970) - http://www.bohemiancoding.com/sketch -->
    <title>Fill 51</title>
    <desc>Created with Sketch.</desc>
    <defs></defs>
    <g id="Page-1" stroke="none" stroke-width="1" fill="none" fill-rule="evenodd" sketch:type="MSPage">
        <path d="M49.99,21 C49.99,20.849 49.967,20.697 49.895,20.553 C49.804,20.371 49.657,20.246 49.494,20.151 C48.323,16.39 45.95,9.69 44.373,6.546 C45.832,5.91 48.817,4.796 51.817,4.796 C52.369,4.796 52.901,4.835 53.403,4.91 C55.338,8.099 56.503,16.731 56.909,21 L49.99,21 L49.99,21 Z M44.929,21.917 C42.104,17.694 35.474,10.78 31.555,8.168 C31.291,7.991 30.959,7.951 30.661,8.06 C28.523,8.831 28.453,8.849 26.899,9.005 C26.603,9.035 26.335,9.195 26.169,9.443 L25.822,9.973 C24.439,12.103 23.231,13.679 21.313,13.051 C20.912,12.918 20.699,12.681 20.601,12.258 C20.231,10.672 21.736,7.524 23.228,6.061 C25.534,3.799 29.731,1.832 33.971,3.728 C38.114,5.581 41.248,6.605 42.313,6.935 C43.753,9.495 46.307,16.668 47.542,20.611 L44.929,21.917 L44.929,21.917 Z M43.737,27.033 C43.555,27.189 43.08,27.51 42.587,27.188 C41.515,26.319 36.559,21.219 34.721,19.307 C34.338,18.908 33.706,18.897 33.307,19.279 C32.909,19.662 32.896,20.295 33.279,20.693 C33.918,21.357 39.167,26.808 40.993,28.45 C40.931,28.852 40.675,29.174 40.212,29.406 C39.371,29.826 38.213,29.764 37.682,29.269 C37.67,29.258 37.655,29.251 37.643,29.241 C37.635,29.234 37.632,29.225 37.624,29.219 C36.127,28.023 31.556,23.214 30.736,22.323 C30.363,21.916 29.729,21.89 29.323,22.264 C28.917,22.638 28.89,23.271 29.264,23.677 C29.802,24.262 33.892,28.597 35.889,30.365 C35.771,30.647 35.572,30.852 35.273,30.967 C34.517,31.258 33.449,30.969 32.674,30.262 C32.668,30.256 32.661,30.253 32.654,30.247 C32.65,30.244 32.648,30.238 32.645,30.235 C32.079,29.759 31.367,29.199 30.617,28.61 C29.194,27.494 27.581,26.229 26.731,25.317 C26.354,24.914 25.721,24.894 25.318,25.269 C24.914,25.646 24.892,26.278 25.269,26.683 C26.225,27.706 27.83,28.966 29.382,30.184 C29.827,30.533 30.244,30.863 30.638,31.18 C30.151,31.605 29.392,32 29,32 C28.292,32 27.308,31.664 26.549,31.164 C25.692,30.602 19.854,25.806 14.707,21.496 C14.056,20.949 13.522,20.312 13.005,19.694 C12.549,19.15 12.119,18.636 11.645,18.236 C11.612,18.208 11.571,18.199 11.536,18.176 C12.783,13.95 14.386,8.037 14.894,4.018 C16.504,4.095 19.104,4.416 21.284,4.684 C21.435,4.702 21.579,4.72 21.726,4.738 C20.063,6.439 18.059,10.161 18.652,12.712 C18.908,13.807 19.63,14.602 20.687,14.95 C24.219,16.111 26.272,12.951 27.5,11.062 L27.576,10.945 C28.827,10.807 29.27,10.683 30.856,10.114 C35.417,13.343 42.608,21.332 44.099,24.433 C44.638,25.556 44.306,26.548 43.737,27.033 L43.737,27.033 Z M8.271,22 L2.017,22 C2.187,14.632 3.432,5.135 3.852,2.113 C5.825,2.366 10.344,2.992 12.918,3.711 C12.219,9.337 9.128,19.302 8.271,22 L8.271,22 Z M54.813,3.417 C54.665,3.211 54.444,3.068 54.195,3.02 C53.449,2.871 52.649,2.796 51.817,2.796 C47.86,2.796 44.073,4.455 42.896,5.021 C41.871,4.702 38.782,3.688 34.788,1.901 C30.74,0.092 26.768,1.144 23.911,2.983 C23.231,2.908 22.413,2.808 21.527,2.699 C18.797,2.363 15.724,1.989 14.157,2.001 C10.895,0.921 3.437,0.044 3.115,0.007 C2.582,-0.061 2.09,0.319 2.011,0.854 C1.992,0.983 0.083,13.944 -1.67190412e-15,22.991 C-0.002,23.258 0.102,23.515 0.29,23.704 C0.478,23.894 0.733,24 1,24 L9,24 C9.433,24 9.816,23.722 9.951,23.311 C10.002,23.154 10.374,22.012 10.896,20.306 C11.082,20.513 11.274,20.742 11.472,20.979 C12.018,21.63 12.636,22.368 13.422,23.028 C17.668,26.584 24.375,32.13 25.449,32.835 C26.304,33.398 27.685,34 29,34 C29.963,34 31.362,33.324 32.24,32.407 C33.437,33.1 34.845,33.276 35.996,32.832 C36.696,32.561 37.241,32.084 37.586,31.461 C38.676,31.821 40.003,31.746 41.107,31.194 C41.96,30.768 42.556,30.108 42.835,29.323 C43.592,29.363 44.376,29.117 45.037,28.554 C46.171,27.584 46.874,25.699 45.934,23.651 L48.162,22.537 C48.342,22.818 48.652,23 49,23 L58,23 C58.279,23 58.545,22.884 58.734,22.679 C58.923,22.475 59.019,22.2 58.997,21.922 C58.952,21.341 57.849,7.648 54.813,3.417 L54.813,3.417 Z" id="Fill-51" fill="#FFFFFF" sketch:type="MSShapeGroup"></path>
    </g>
</svg>