<?xml version="1.0" encoding="UTF-8" standalone="no"?>
<!-- Created with Inkscape (http://www.inkscape.org/) -->

<svg
   xmlns:dc="http://purl.org/dc/elements/1.1/"
   xmlns:cc="http://creativecommons.org/ns#"
   xmlns:rdf="http://www.w3.org/1999/02/22-rdf-syntax-ns#"
   xmlns:svg="http://www.w3.org/2000/svg"
   xmlns="http://www.w3.org/2000/svg"
   version="1.1"
   width="450"
   height="120"
   id="svg2">
  <defs
     id="defs4" />
  <metadata
     id="metadata7">
    <rdf:RDF>
      <cc:Work
         rdf:about="">
        <dc:format>image/svg+xml</dc:format>
        <dc:type
           rdf:resource="http://purl.org/dc/dcmitype/StillImage" />
        <dc:title></dc:title>
      </cc:Work>
    </rdf:RDF>
  </metadata>
  <g
     transform="translate(0,-932.36218)"
     id="layer1">
    <g
       transform="matrix(0.38521272,0,0,0.38521272,-75.465814,671.72604)"
       id="g3204">
      <path
         d="m 721.65471,815.51385 c 1.52118,0 2.06855,0.6819 2.48572,3.84706 l 5.28123,0 0,-20.15605 -72.91031,0.0802 0,5.27012 c 3.44224,0.2777 3.852,1.24039 3.852,2.48078 l 0,56.79324 c 0,1.23176 -0.40976,2.19383 -3.852,2.47338 l 0,5.27444 72.91031,-0.0123 0,-20.91447 -5.28123,0 c -0.41717,3.42804 -0.97133,4.11488 -2.49251,4.11488 l -40.62558,0 0,-13.07964 21.96726,0 c 2.76774,0 3.73167,1.36443 4.13896,3.14849 l 5.28184,0 0,-20.72872 -5.28184,0 c -0.40729,1.78839 -1.37122,3.16516 -4.13896,3.16516 l -21.96726,0 0,-11.75656 40.63237,0"
         id="path3018"
         style="fill:#fff;fill-opacity:1;fill-rule:evenodd;stroke:none" />
      <path
         d="m 296.33822,807.04216 c 0,-1.24656 -0.41223,-2.20308 -3.8594,-2.48695 l 0,-5.27012 28.3778,0 0,5.27012 c -3.45212,0.28387 -3.86435,1.24039 -3.86435,2.48695 l 0,33.25976 c 0,24.20675 -16.60642,32.15266 -37.71097,32.15266 -21.10269,0 -37.70171,-7.94591 -37.70171,-32.15266 l 0,-33.25976 c 0,-1.24656 -0.41705,-2.20308 -3.85935,-2.48695 l 0,-5.27012 28.37713,0 0,5.27012 c -3.44656,0.28387 -3.86126,1.24039 -3.86126,2.48695 l 0,33.25976 c 0,10.60874 6.01188,14.88284 17.04519,14.88284 11.04257,0 17.05692,-4.2741 17.05692,-14.88284 l 0,-33.25976"
         id="path3020"
         style="fill:#fff;fill-opacity:1;fill-rule:evenodd;stroke:none" />
      <path
         d="m 359.1199,854.76512 31.393,0 c 1.51871,0 2.06115,-0.68684 2.48017,-3.85446 l 5.28431,0 0,20.74106 -63.67341,-0.0747 0,-5.27444 c 3.44965,-0.27955 3.85447,-1.24162 3.85447,-2.47338 l 0,-56.79324 c 0,-1.24039 -0.40482,-2.20308 -3.85447,-2.48078 l 0,-5.27012 28.37534,0 0,5.27012 c -3.44224,0.2777 -3.85941,1.24039 -3.85941,2.48078 l 0,47.72913"
         id="path3022"
         style="fill:#fff;fill-opacity:1;fill-rule:evenodd;stroke:none" />
      <path
         d="m 441.72315,799.28509 27.03003,0 0,5.27012 c -1.3743,0 -2.79859,1.24039 -3.76807,2.48078 l -26.47525,33.65409 0,23.13915 c 0,1.23176 0.4147,2.19383 3.85941,2.47338 l 0,5.27444 -28.37225,0 0,-5.27444 c 3.44471,-0.27955 3.85447,-1.24162 3.85447,-2.47338 l 0,-20.52631 -26.21298,-34.07002 c -2.24196,-3.27068 -3.26883,-4.5913 -5.00908,-4.67769 l 0,-5.27012 31.23378,0 0,5.27012 c -1.65385,0 -3.91247,0.14193 -3.91247,1.65385 0,1.51809 10.74635,12.6847 15.28828,19.5593 1.51377,-2.74552 15.97265,-18.18931 15.97265,-19.5593 0,-1.51192 -2.25677,-1.65385 -3.48852,-1.65385 l 0,-5.27012"
         id="path3024"
         style="fill:#fff;fill-opacity:1;fill-rule:evenodd;stroke:none" />
      <path
         d="m 474.23744,844.3298 5.6336,0.0531 c -0.087,1.33542 0.166,1.79579 0.166,3.07382 0,3.83534 17.65983,9.54793 32.39333,9.54793 14.17193,0 21.98208,-3.56998 20.54791,-9.65407 -3.27808,-13.89238 -58.43475,1.13548 -58.43475,-26.19817 0,-14.22747 13.63874,-23.99015 34.49027,-23.99015 19.40564,0 26.63262,3.74586 30.53769,3.82608 1.84392,0 2.83685,-0.99354 3.83287,-2.12286 l 5.33676,0.0185 0,23.38414 -5.43797,-0.13946 0,-1.8032 c 0,-3.54097 -19.24396,-9.0061 -32.56983,-9.0061 -12.32492,0 -16.5873,3.42311 -16.5873,6.69441 0,12.63594 58.62113,-2.84241 58.62113,29.76568 0,12.19533 -9.19185,25.64647 -39.90974,25.64647 -23.6748,0 -27.18184,-4.70793 -30.45807,-4.69127 -1.13302,0 -1.98154,1.18362 -2.83007,2.02721 l -5.35158,0.0703 0.0197,-26.5024"
         id="path3026"
         style="fill:#fff;fill-opacity:1;fill-rule:evenodd;stroke:none" />
      <path
         d="m 565.14267,844.3298 5.63113,0.0531 c -0.0839,1.33542 0.16909,1.79579 0.16909,3.07382 0,3.83534 17.6623,9.54793 32.39333,9.54793 14.17193,0 21.98208,-3.56998 20.55038,-9.65407 -3.28117,-13.89238 -58.43784,1.13548 -58.43784,-26.19817 0,-14.22747 13.63936,-23.99015 34.48348,-23.99015 19.41243,0 26.63941,3.74586 30.54448,3.82608 1.84454,0 2.83006,-0.99354 3.8304,-2.12286 l 5.33738,0.0185 0,23.38414 -5.43365,-0.13946 0,-1.8032 c 0,-3.54097 -19.24828,-9.0061 -32.57415,-9.0061 -12.328,0 -16.5873,3.42311 -16.5873,6.69441 0,12.63594 58.62545,-2.84241 58.62545,29.76568 0,12.19533 -9.19371,25.64647 -39.90974,25.64647 -23.68159,0 -27.19109,-4.70793 -30.45746,-4.69127 -1.13301,0 -1.98154,1.18362 -2.83253,2.02721 l -5.34664,0.0703 0.0142,-26.5024"
         id="path3028"
         style="fill:#fff;fill-opacity:1;fill-rule:evenodd;stroke:none" />
      <path
         d="m 974.24151,855.89135 c 0.54923,1.79085 2.33268,5.8286 2.99299,7.44605 0.72819,1.77419 -1.29593,2.99175 -4.37531,2.96521 l 0,5.27444 29.32511,0 0,-5.27444 c -1.6539,0 -2.40061,-0.86334 -3.85699,-4.13649 -9.15791,-20.74785 -28.13404,-62.88103 -28.13404,-62.88103 l -32.44147,0 0,5.27012 c 1.78345,-0.0309 3.90014,0.96886 3.76437,2.8819 -0.12959,1.5798 -22.64793,52.52285 -23.87598,55.69788 -0.83927,2.20061 -1.66003,2.75046 -3.58541,3.16762 l 0,5.27444 26.5419,0 0,-5.27444 c -1.92538,0 -3.81374,-0.94294 -3.1596,-2.80353 0.41346,-1.18855 1.37615,-3.64033 2.89424,-7.57873 l 33.91019,-0.029 z m -17.80362,-43.73088 13.36043,30.77589 -25.6224,0 12.26197,-30.77589"
         id="path3030"
         style="fill:#fff;fill-opacity:1;fill-rule:evenodd;stroke:none" />
      <path
         d="m 1034.996,845.22646 13.4962,0 c 1.7896,2.01054 16.4028,17.34696 16.4028,18.59537 0,1.65385 -1.1108,2.34317 -3.0362,2.48078 l 0,5.27444 32.7809,0 0,-5.27444 c -1.5058,0 -4.8073,-0.69425 -6.0477,-2.48078 l -17.6308,-19.98819 c 11.435,-3.16763 19.0255,-9.13878 19.0255,-21.79447 0,-15.65732 -8.6951,-22.75408 -29.0906,-22.75408 l -50.4117,0 0,5.27012 c 3.4496,0.2777 3.8569,1.24039 3.8569,2.48078 l 0,56.78584 c 0,1.23916 -0.4073,2.20123 -3.8569,2.48078 l 0,5.27444 28.3624,0 0,-5.27444 c -3.4312,-0.27955 -3.8508,-1.24162 -3.8508,-2.48078 l 0,-18.59537 z m -0.049,-30.57348 23.1416,0 c 8.1335,0.66339 10.6143,4.22844 10.6143,8.20077 0,3.98283 -2.4808,7.54787 -10.6143,8.21312 l -23.1416,0 0,-16.41389"
         id="path3032"
         style="fill:#fff;fill-opacity:1;fill-rule:evenodd;stroke:none" />
      <path
         d="m 1107.13,863.82923 c 0,1.23176 -0.4073,2.19383 -3.857,2.47338 l 0,5.27444 44.2036,0 c 25.5977,0 38.6805,-17.29883 38.6805,-36.14475 0,-20.50903 -11.8424,-36.14721 -37.1747,-36.14721 l -45.7094,0 0,5.27012 c 3.4497,0.2777 3.857,1.24039 3.857,2.48078 l 0,56.79324 z m 20.1301,-48.31538 17.4765,0 c 14.6009,0 20.5066,8.23718 20.5066,19.91845 0,11.67202 -5.9057,19.91414 -20.5066,19.91414 l -17.4765,0 0,-39.83259"
         id="path3034"
         style="fill:#fff;fill-opacity:1;fill-rule:evenodd;stroke:none" />
      <path
         d="m 1195.2348,871.57705 0,-5.27444 c 3.4373,-0.27955 3.8507,-1.24162 3.8507,-2.47338 l 0,-56.79324 c 0,-1.24039 -0.4134,-2.20308 -3.8507,-2.48078 l 0,-5.27012 28.3685,0 0,5.27012 c -3.4435,0.2777 -3.8569,1.24039 -3.8569,2.48078 l 0,56.79324 c 0,1.23176 0.4134,2.19383 3.8569,2.47338 l 0,5.27444 -28.3685,0"
         id="path3036"
         style="fill:#fff;fill-opacity:1;fill-rule:evenodd;stroke:none" />
      <path
         d="m 1241.0181,807.03599 c 0,-1.24039 -0.4073,-2.20308 -3.8569,-2.48078 l 0,-5.27012 25.0608,0 37.7425,40.78048 0,-33.02958 c 0,-1.65385 -1.1046,-2.33885 -2.8943,-2.48078 l 0,-5.27012 25.209,0 0,5.27012 c -3.4435,0.2777 -3.857,1.24039 -3.857,2.48078 l 0,56.79324 c 0,1.23176 0.4135,2.19383 3.857,2.47338 l 0,5.27444 -20.1919,0 -42.6176,-47.27679 0,39.52897 c 0,1.23176 0.4135,2.19383 3.8631,2.47338 l 0,5.27444 -26.1716,0 0,-5.27444 c 3.4496,-0.27955 3.8569,-1.24162 3.8569,-2.47338 l 0,-56.79324"
         id="path3038"
         style="fill:#fff;fill-opacity:1;fill-rule:evenodd;stroke:none" />
      <path
         d="m 824.11718,807.03599 c 0,-1.24039 -0.41347,-2.20308 -3.85694,-2.48078 l 0,-5.27012 25.06084,0 37.73627,40.78048 0,-33.02958 c 0,-1.65385 -1.09846,-2.33885 -2.88191,-2.48078 l 0,-5.27012 25.1966,0 0,5.27012 c -3.4373,0.2777 -3.85076,1.24039 -3.85076,2.48078 l 0,56.79324 c 0,1.23176 0.41346,2.19383 3.85076,2.47338 l 0,5.27444 -20.17949,0 -42.61761,-47.27679 0,39.52897 c 0,1.23176 0.40729,2.19383 3.85076,2.47338 l 0,5.27444 -26.16546,0 0,-5.27444 c 3.44347,-0.27955 3.85694,-1.24162 3.85694,-2.47338 l 0,-56.79324"
         id="path3040"
         style="fill:#fff;fill-opacity:1;fill-rule:evenodd;stroke:none" />
      <path
         d="m 380.08004,920.61322 c 0.54182,1.70384 2.24628,5.45957 5.76566,5.45957 2.19382,0 3.55825,-1.36443 3.55825,-3.53357 0,-2.44437 -1.71186,-3.70512 -4.19449,-4.80235 -2.50238,-1.075 -5.59472,-2.87573 -5.59472,-6.2939 0,-3.36016 2.61284,-6.08902 7.12577,-6.08902 1.62917,0 3.27562,0.44123 4.44751,0.83433 0.13453,1.16634 0.32522,2.56471 0.62637,4.96341 l -1.33543,0.19748 c -0.56157,-1.97167 -1.49711,-4.42098 -4.35803,-4.42098 -2.16729,0 -3.25217,1.39776 -3.25217,3.14788 0,2.02289 1.38109,3.18429 4.08588,4.31545 2.94609,1.20768 5.79775,3.06827 5.79775,6.66726 0,3.852 -3.11949,6.58086 -7.64167,6.58086 -1.3453,0 -2.63938,-0.23142 -3.52431,-0.5085 -0.88,-0.27215 -1.43417,-0.5301 -1.82974,-0.71585 -0.27955,-0.85593 -0.63624,-3.14849 -0.99539,-5.48919 l 1.31876,-0.31288"
         id="path3042"
         style="fill:#fff;fill-opacity:1;fill-rule:evenodd;stroke:none" />
      <path
         d="m 404.71815,915.41099 c 0,-2.3191 -0.21166,-2.43018 -2.32588,-2.57952 l 0,-1.2657 8.13783,0 0,1.2299 c -2.15495,0.15181 -2.35243,0.29622 -2.35243,2.61532 l 0,7.91135 c 0,2.28269 0.19748,2.44437 2.35243,2.60111 l 0,1.22435 -8.13783,0 0,-1.22435 c 2.11422,-0.15674 2.32588,-0.31842 2.32588,-2.60111 l 0,-7.91135"
         id="path3044"
         style="fill:#fff;fill-opacity:1;fill-rule:evenodd;stroke:none" />
      <path
         d="m 423.01485,915.83062 c 0,-2.37464 -0.57638,-2.88314 -2.85167,-3.03495 l 0,-1.2299 5.46945,0 9.07583,10.49581 0.0697,0 0,-3.85694 c 0,-2.13828 -0.10368,-3.35769 -0.23636,-4.10748 -0.12774,-0.85593 -0.90345,-1.21756 -2.66344,-1.30149 l 0,-1.2299 7.02703,0 0,1.2299 c -1.40084,0.0481 -2.13335,0.44556 -2.28269,1.30149 -0.10121,0.74979 -0.22216,1.9692 -0.22216,4.10748 l 0,9.09312 -1.75013,0 -9.97249,-11.99292 -0.0339,0.0506 0,5.12016 c 0,2.21049 0.0994,3.41323 0.21475,4.12908 0.11355,0.85593 0.88926,1.23669 2.63506,1.31876 l 0,1.22435 -6.9573,0 0,-1.22435 c 1.39344,-0.0506 2.13335,-0.46283 2.26109,-1.31876 0.12096,-0.71585 0.21723,-1.91859 0.21723,-4.12908 l 0,-4.64499"
         id="path3046"
         style="fill:#fff;fill-opacity:1;fill-rule:evenodd;stroke:none" />
      <path
         d="m 462.06865,916.51746 c -0.76892,-2.96274 -2.28022,-3.86681 -4.58513,-3.86681 -3.19601,0 -5.26456,2.55052 -5.26456,6.47719 0,4.46232 2.36476,6.94002 5.34911,6.94002 2.31663,0 3.70019,-1.40516 5.02636,-4.16549 l 1.32555,0.14008 c -0.33015,1.41997 -0.9016,3.8736 -1.2947,4.72953 -0.72757,0.20735 -3.23489,0.77386 -5.2189,0.77386 -6.3661,0 -9.19123,-3.95568 -9.19123,-7.99096 0,-4.99736 4.10255,-8.38159 9.86388,-8.38159 2.21049,0 4.04269,0.51344 4.86962,0.73498 0.137,1.31136 0.23635,2.55298 0.44555,4.45245 l -1.32555,0.15674"
         id="path3048"
         style="fill:#fff;fill-opacity:1;fill-rule:evenodd;stroke:none" />
      <path
         d="m 475.74381,915.45418 c 0,-2.36229 -0.17835,-2.5357 -2.2975,-2.65851 l 0,-1.2299 13.12346,0 c 0.0364,0.67019 0.1518,2.30244 0.28448,3.99949 l -1.31136,0.0555 c -0.29436,-0.94047 -0.52084,-1.46563 -0.90653,-1.88774 -0.33756,-0.37582 -1.05094,-0.68684 -2.68751,-0.68684 l -1.731,0 c -0.99046,0 -1.0244,0.0167 -1.0244,0.88432 l 0,4.30311 2.47338,0 c 1.89946,0 1.96426,-0.13268 2.22468,-1.73778 l 1.28729,0 0,5.20162 -1.28729,0 c -0.26042,-1.73532 -0.32522,-1.8464 -2.22468,-1.8464 l -2.47338,0 0,3.11456 c 0,1.35949 0.17835,2.14322 0.67018,2.3987 0.4869,0.24068 1.22435,0.31103 2.52892,0.31103 1.41688,0 2.50423,-0.17835 3.0874,-0.7572 0.42704,-0.45789 0.91888,-1.26569 1.31136,-2.3697 l 1.32864,0.0703 c -0.18575,1.30642 -0.70906,3.86373 -0.9016,4.52897 l -13.99852,0 0,-1.23175 c 2.34563,-0.14934 2.52398,-0.31102 2.52398,-2.62766 l 0,-7.83421"
         id="path3050"
         style="fill:#fff;fill-opacity:1;fill-rule:evenodd;stroke:none" />
      <path
         d="m 514.74207,916.27371 c 0,-1.56438 -0.16107,-1.8248 -1.26508,-1.8538 l -1.89514,-0.0623 0,-1.16202 c 2.0272,-0.31596 4.15377,-0.78558 6.55679,-1.52364 l 0,12.03364 c 0,1.68533 0.16662,1.91921 1.23669,2.02721 l 1.70446,0.18328 0,1.23175 -9.27825,0 0,-1.23175 1.70878,-0.18328 c 1.07068,-0.108 1.23175,-0.34188 1.23175,-2.02721 l 0,-7.43185"
         id="path3052"
         style="fill:#fff;fill-opacity:1;fill-rule:evenodd;stroke:none" />
      <path
         d="m 537.05923,907.07753 c -3.62737,0 -6.02608,2.54805 -6.02608,5.40712 0,2.13335 1.5545,3.58911 3.25156,4.48824 -0.8942,0.59058 -2.29195,1.53784 -2.7264,2.00067 -0.57576,0.62205 -1.31567,1.58906 -1.31567,3.23489 0,3.32684 2.75477,5.33739 6.46484,5.33739 3.01582,0 6.72341,-2.01055 6.72341,-5.92796 0,-3.16454 -2.06114,-4.55551 -4.03096,-5.69593 1.25397,-0.81952 2.09015,-1.54771 2.35057,-1.81739 0.61218,-0.67758 0.88926,-1.55758 0.88926,-2.36044 0,-2.61038 -2.20062,-4.66659 -5.54412,-4.66659 l -0.0364,0 z m -0.007,18.99033 c -1.73839,0 -3.58726,-1.34715 -3.58726,-4.10749 0,-1.80319 0.81521,-3.32437 2.29504,-4.21115 2.23455,1.03427 4.34877,2.28269 4.43578,4.732 0,2.34995 -1.23669,3.58664 -3.11208,3.58664 l -0.0315,0 z m -0.20734,-17.51235 c 1.21508,0 2.7844,1.05341 2.7844,3.39843 0,1.66372 -0.7788,2.68072 -1.55759,3.31696 -2.18642,-0.95467 -3.97727,-1.99573 -3.97727,-4.00628 0,-1.33789 0.92566,-2.70911 2.71651,-2.70911 l 0.034,0"
         id="path3054"
         style="fill:#fff;fill-opacity:1;fill-rule:evenodd;stroke:none" />
      <path
         d="m 564.72797,911.65279 -1.98339,0 c -3.38978,4.14883 -6.85115,8.43466 -10.11998,12.83156 l 0,1.40269 8.86601,0 0,6.40252 3.2639,0 0,-6.40252 2.74614,0 0.34435,-1.97413 -3.09049,0 -0.0265,-12.26012 z m -3.23736,12.26012 -6.28403,0 c 2.02721,-2.8492 4.08836,-5.52992 6.22664,-8.27298 l 0.0574,0 0,8.27298"
         id="path3056"
         style="fill:#fff;fill-opacity:1;fill-rule:evenodd;stroke:none" />
      <path
         d="m 590.15043,907.0726 c -2.21789,0.29436 -4.74187,1.17621 -7.05109,2.66838 -3.12196,1.73593 -6.46053,5.23371 -6.46053,10.01137 0,5.20471 3.24724,7.78608 6.93755,7.78608 3.98036,0 7.18625,-3.01335 7.18625,-7.08689 0,-3.72673 -2.59372,-6.01929 -5.96622,-6.01929 -0.49431,0 -1.28236,0.24808 -2.35489,0.65784 l -1.60819,0.61958 c 0.72819,-1.72112 3.02754,-4.732 6.43646,-6.26243 1.05834,-0.49678 2.11421,-0.82693 3.09048,-1.01762 l -0.20982,-1.35702 z m -7.08257,9.41586 c 3.11456,0 4.24757,2.72146 4.24757,5.21643 0,2.98188 -1.39096,4.31483 -3.06889,4.31483 -2.03214,0 -3.90507,-2.19814 -3.90507,-6.40004 0,-0.9522 0.0315,-1.75506 0.23142,-2.49498 0.91826,-0.45049 1.76246,-0.63624 2.46844,-0.63624 l 0.0265,0"
         id="path3058"
         style="fill:#fff;fill-opacity:1;fill-rule:evenodd;stroke:none" />
      <path
         d="m 925.95266,910.24516 c 0,-2.7412 -0.27153,-2.97262 -3.00533,-3.16763 l 0,-1.23175 9.62692,0 0,1.23175 c -2.777,0.19501 -3.06704,0.42643 -3.06704,3.16763 l 0,12.31566 c 0,1.53043 0.16662,2.35736 0.82693,2.65172 0.65414,0.31103 1.72791,0.35916 2.90042,0.35916 1.31444,0 2.69677,-0.17587 3.46816,-0.98367 0.52454,-0.60045 1.14782,-1.68471 1.69088,-3.27377 l 1.37615,0.21229 c -0.19747,1.3237 -0.92566,4.74434 -1.21571,5.62125 l -15.70544,0 0,-1.23175 c 2.83253,-0.19501 3.10406,-0.41902 3.10406,-3.16948 l 0,-12.50141"
         id="path3060"
         style="fill:#fff;fill-opacity:1;fill-rule:evenodd;stroke:none" />
      <path
         d="m 947.77984,915.45418 c 0,-2.36229 -0.17896,-2.5357 -2.30182,-2.65851 l 0,-1.2299 13.13827,0 c 0.0185,0.67019 0.14193,2.30244 0.26536,3.99949 l -1.30211,0.0555 c -0.30238,-0.94047 -0.53071,-1.46563 -0.90715,-1.88774 -0.34558,-0.37582 -1.05526,-0.68684 -2.6906,-0.68684 l -1.73408,0 c -0.98737,0 -1.01823,0.0167 -1.01823,0.88432 l 0,4.30311 2.46844,0 c 1.89453,0 1.96241,-0.13268 2.22777,-1.73778 l 1.27742,0 0,5.20162 -1.27742,0 c -0.26536,-1.73532 -0.33324,-1.8464 -2.22777,-1.8464 l -2.46844,0 0,3.11456 c 0,1.35949 0.17896,2.14322 0.66648,2.3987 0.48135,0.24068 1.22805,0.31103 2.51781,0.31103 1.4317,0 2.51164,-0.17835 3.09789,-0.7572 0.42581,-0.45789 0.9195,-1.26569 1.30828,-2.3697 l 1.32678,0.0703 c -0.17896,1.30642 -0.70967,3.86373 -0.90715,4.52897 l -13.98371,0 0,-1.23175 c 2.34502,-0.14934 2.52398,-0.31102 2.52398,-2.62766 l 0,-7.83421"
         id="path3062"
         style="fill:#fff;fill-opacity:1;fill-rule:evenodd;stroke:none" />
      <path
         d="m 979.94978,910.24516 c 0,-2.7412 -0.28387,-2.97262 -2.99915,-3.16763 l 0,-1.23175 9.62074,0 0,1.23175 c -2.777,0.19501 -3.06087,0.42643 -3.06087,3.16763 l 0,12.31566 c 0,1.53043 0.16662,2.35736 0.81459,2.65172 0.66031,0.31103 1.74025,0.35916 2.91276,0.35916 1.30827,0 2.6906,-0.17587 3.46198,-0.98367 0.52455,-0.60045 1.14783,-1.68471 1.69089,-3.27377 l 1.36998,0.21229 c -0.1913,1.3237 -0.91332,4.74434 -1.20954,5.62125 l -15.6931,0 0,-1.23175 c 2.80785,-0.19501 3.09172,-0.41902 3.09172,-3.16948 l 0,-12.50141"
         id="path3064"
         style="fill:#fff;fill-opacity:1;fill-rule:evenodd;stroke:none" />
      <path
         d="m 1007.8863,911.17329 c -3.9741,0 -8.65801,2.70912 -8.65801,8.50933 0,3.77486 2.99301,7.86322 8.67661,7.86322 4.4555,0 8.5716,-2.89302 8.5716,-8.39393 0,-4.44998 -3.2954,-7.97862 -8.5655,-7.97862 l -0.025,0 z m -0.2591,1.47736 c 3.2028,0 4.8813,3.60886 4.8813,7.18872 0,4.82333 -1.9809,6.22849 -4.3259,6.22849 -2.9313,0 -4.9122,-2.80785 -4.9122,-7.0727 0,-4.04947 1.8945,-6.34451 4.3259,-6.34451 l 0.031,0"
         id="path3066"
         style="fill:#fff;fill-opacity:1;fill-rule:evenodd;stroke:none" />
      <path
         d="m 1037.594,916.51746 c -0.7652,-2.96274 -2.2833,-3.86681 -4.5851,-3.86681 -3.1966,0 -5.2701,2.55052 -5.2701,6.47719 0,4.46232 2.3697,6.94002 5.3503,6.94002 2.3265,0 3.6965,-1.40516 5.0295,-4.16549 l 1.3267,0.14008 c -0.3208,1.41997 -0.9071,3.8736 -1.2959,4.72953 -0.722,0.20735 -3.2336,0.77386 -5.2146,0.77386 -6.3747,0 -9.1887,-3.95568 -9.1887,-7.99096 0,-4.99736 4.0976,-8.38159 9.8614,-8.38159 2.2092,0 4.0482,0.51344 4.8628,0.73498 0.1358,1.31136 0.2345,2.55298 0.4505,4.45245 l -1.3268,0.15674"
         id="path3068"
         style="fill:#fff;fill-opacity:1;fill-rule:evenodd;stroke:none" />
      <path
         d="m 1048.1713,915.30978 c 0,-2.22962 -0.2098,-2.37958 -2.345,-2.51411 l 0,-1.2299 8.3186,0 0,1.2299 c -2.3018,0.13453 -2.5116,0.28449 -2.5116,2.51411 l 0,8.01996 c 0,1.02687 0.1728,1.79085 0.6603,2.03461 0.4937,0.26042 1.2095,0.31103 2.382,0.31103 1.1725,0 2.1722,-0.2487 2.7523,-0.86581 0.4382,-0.4653 0.9072,-1.26754 1.3392,-2.5067 l 1.3144,0.0963 c -0.1851,1.01021 -0.6973,3.95814 -0.901,4.74866 l -13.527,0 0,-1.23175 c 2.3388,-0.13021 2.5178,-0.29128 2.5178,-2.52151 l 0,-8.08476"
         id="path3070"
         style="fill:#fff;fill-opacity:1;fill-rule:evenodd;stroke:none" />
      <path
         d="m 1068.5606,915.45418 c 0,-2.36229 -0.1913,-2.5357 -2.308,-2.65851 l 0,-1.2299 13.1321,0 c 0.037,0.67019 0.1481,2.30244 0.2777,3.99949 l -1.3083,0.0555 c -0.2962,-0.94047 -0.5245,-1.46563 -0.9009,-1.88774 -0.3518,-0.37582 -1.0615,-0.68684 -2.6968,-0.68684 l -1.7403,0 c -0.9812,0 -1.012,0.0167 -1.012,0.88432 l 0,4.30311 2.4746,0 c 1.9007,0 1.9562,-0.13268 2.2216,-1.73778 l 1.2897,0 0,5.20162 -1.2897,0 c -0.2654,-1.73532 -0.3209,-1.8464 -2.2216,-1.8464 l -2.4746,0 0,3.11456 c 0,1.35949 0.1789,2.14322 0.6726,2.3987 0.4875,0.24068 1.2219,0.31103 2.524,0.31103 1.4255,0 2.4931,-0.17835 3.0855,-0.7572 0.4259,-0.45789 0.9195,-1.26569 1.3145,-2.3697 l 1.3268,0.0703 c -0.1852,1.30642 -0.7035,3.86373 -0.9072,4.52897 l -13.996,0 0,-1.23175 c 2.345,-0.14934 2.5363,-0.31102 2.5363,-2.62766 l 0,-7.83421"
         id="path3072"
         style="fill:#fff;fill-opacity:1;fill-rule:evenodd;stroke:none" />
      <path
         d="m 1097.8178,920.84464 9.2952,0 0,-2.42746 -9.2952,0 0,2.42746 z"
         id="path3074"
         style="fill:#fff;fill-opacity:1;fill-rule:nonzero;stroke:none" />
      <path
         d="m 1125.4705,920.61322 c 0.5307,1.70384 2.2277,5.45957 5.7576,5.45957 2.1908,0 3.5484,-1.36443 3.5484,-3.53357 0,-2.44437 -1.6971,-3.70512 -4.184,-4.80235 -2.4993,-1.075 -5.5972,-2.87573 -5.5972,-6.2939 0,-3.36016 2.6104,-6.08902 7.1276,-6.08902 1.6292,0 3.2769,0.44123 4.4432,0.83433 0.1358,1.16634 0.3333,2.56471 0.6295,4.96341 l -1.333,0.19748 c -0.5616,-1.97167 -1.5057,-4.42098 -4.3568,-4.42098 -2.166,0 -3.246,1.39776 -3.246,3.14788 0,2.02289 1.3762,3.18429 4.0729,4.31545 2.956,1.20768 5.807,3.06827 5.807,6.66726 0,3.852 -3.1225,6.58086 -7.6521,6.58086 -1.3392,0 -2.6351,-0.23142 -3.5114,-0.5085 -0.8886,-0.27215 -1.4502,-0.5301 -1.839,-0.71585 -0.2777,-0.85593 -0.6294,-3.14849 -1.0059,-5.48919 l 1.3392,-0.31288"
         id="path3076"
         style="fill:#fff;fill-opacity:1;fill-rule:evenodd;stroke:none" />
      <path
         d="m 1146.156,915.33385 c 0,-2.19136 -0.216,-2.36724 -2.3759,-2.53818 l 0,-1.2299 8.1274,0 0,1.2299 c -2.092,0.17094 -2.2833,0.34682 -2.2833,2.53818 l 0,4.50058 c 0,3.87607 1.5551,5.79466 4.2457,5.79466 2.9004,0 4.2457,-2.26541 4.2457,-5.92734 l 0,-1.57425 c 0,-2.4493 -0.093,-3.30215 -0.2098,-4.05441 -0.1666,-0.85346 -0.8455,-1.19349 -2.6104,-1.27742 l 0,-1.2299 6.8746,0 0,1.2299 c -1.3823,0.0481 -2.0611,0.44062 -2.2031,1.27742 -0.1172,0.75226 -0.2221,1.8322 -0.2221,4.05441 l 0,2.03462 c 0,2.16729 -0.4937,4.24756 -1.8946,5.57558 -1.1416,1.12561 -2.8942,1.80073 -5.0047,1.80073 -1.8205,0 -3.4682,-0.33756 -4.6469,-1.29223 -1.2774,-1.02872 -2.0426,-2.76712 -2.0426,-5.55152 l 0,-5.36083"
         id="path3078"
         style="fill:#fff;fill-opacity:1;fill-rule:evenodd;stroke:none" />
      <path
         d="m 1170.8219,915.41099 c 0,-2.3191 -0.2222,-2.43018 -2.345,-2.57952 l 0,-1.2657 8.1582,0 0,1.2299 c -2.1599,0.15181 -2.3574,0.29622 -2.3574,2.61532 l 0,7.91135 c 0,2.28269 0.1975,2.44437 2.3574,2.60111 l 0,1.22435 -8.1582,0 0,-1.22435 c 2.1228,-0.15674 2.345,-0.31842 2.345,-2.60111 l 0,-7.91135"
         id="path3080"
         style="fill:#fff;fill-opacity:1;fill-rule:evenodd;stroke:none" />
      <path
         d="m 1184.6081,921.70983 c 0.5616,1.76925 2.2648,4.35803 4.7703,4.35803 1.6785,0 2.8449,-0.83865 2.8449,-2.29935 0,-1.45823 -0.8702,-2.25369 -2.7894,-2.92387 l -0.7343,-0.26042 c -1.9748,-0.68746 -4.7209,-1.8828 -4.7209,-4.6092 0,-2.7628 2.1784,-4.80173 6.1772,-4.80173 1.7403,0 3.3016,0.49863 3.9495,0.69857 0.1913,0.97689 0.3333,2.1963 0.574,4.18277 l -1.3021,0.13947 c -0.5246,-1.90625 -1.4996,-3.54345 -3.7953,-3.54345 -1.5921,0 -2.4931,0.86766 -2.4931,2.08769 0,1.41503 1.0799,2.03954 2.8387,2.64678 l 0.7282,0.23142 c 2.7091,0.91147 4.8196,2.11915 4.8381,4.97822 0,3.01027 -2.6042,4.95108 -6.4981,4.95108 -2.5178,0 -4.1779,-0.84853 -4.8073,-1.22003 -0.1728,-0.54676 -0.5554,-2.54064 -0.8393,-4.46911 l 1.2589,-0.14687"
         id="path3082"
         style="fill:#fff;fill-opacity:1;fill-rule:evenodd;stroke:none" />
      <path
         d="m 1203.3868,921.70983 c 0.5677,1.76925 2.2709,4.35803 4.7764,4.35803 1.6847,0 2.8634,-0.83865 2.8634,-2.29935 0,-1.45823 -0.8825,-2.25369 -2.8017,-2.92387 l -0.7343,-0.26042 c -1.9748,-0.68746 -4.7148,-1.8828 -4.7148,-4.6092 0,-2.7628 2.1538,-4.80173 6.1526,-4.80173 1.7464,0 3.3139,0.49863 3.968,0.69857 0.1728,0.97689 0.3209,2.1963 0.5678,4.18277 l -1.2959,0.13947 c -0.5431,-1.90625 -1.5058,-3.54345 -3.8138,-3.54345 -1.5921,0 -2.4808,0.86766 -2.4808,2.08769 0,1.41503 1.0738,2.03954 2.8202,2.64678 l 0.7529,0.23142 c 2.6968,0.91147 4.8196,2.11915 4.8381,4.97822 0,3.01027 -2.6103,4.95108 -6.5043,4.95108 -2.5116,0 -4.1778,-0.84853 -4.7949,-1.22003 -0.1852,-0.54676 -0.5616,-2.54064 -0.8578,-4.46911 l 1.2589,-0.14687"
         id="path3084"
         style="fill:#fff;fill-opacity:1;fill-rule:evenodd;stroke:none" />
      <path
         d="m 1223.1898,915.45418 c 0,-2.36229 -0.1789,-2.5357 -2.3018,-2.65851 l 0,-1.2299 13.1259,0 c 0.031,0.67019 0.1543,2.30244 0.2777,3.99949 l -1.3082,0.0555 c -0.2962,-0.94047 -0.5246,-1.46563 -0.901,-1.88774 -0.3394,-0.37582 -1.0553,-0.68684 -2.6906,-0.68684 l -1.7341,0 c -0.9874,0 -1.0182,0.0167 -1.0182,0.88432 l 0,4.30311 2.4684,0 c 1.8945,0 1.9686,-0.13268 2.234,-1.73778 l 1.2712,0 0,5.20162 -1.2712,0 c -0.2654,-1.73532 -0.3395,-1.8464 -2.234,-1.8464 l -2.4684,0 0,3.11456 c 0,1.35949 0.1851,2.14322 0.6665,2.3987 0.4813,0.24068 1.2218,0.31103 2.5301,0.31103 1.407,0 2.5055,-0.17835 3.0917,-0.7572 0.4197,-0.45789 0.9072,-1.26569 1.3083,-2.3697 l 1.3206,0.0703 c -0.1789,1.30642 -0.6973,3.86373 -0.901,4.52897 l -13.996,0 0,-1.23175 c 2.3512,-0.14934 2.5301,-0.31102 2.5301,-2.62766 l 0,-7.83421"
         id="path3086"
         style="fill:#fff;fill-opacity:1;fill-rule:evenodd;stroke:none" />
      <path
         d="m 875.60883,923.97586 -5.07881,-15.19387 32.13908,-12.67976 -27.06027,27.87363 z m -18.82802,-15.81345 -10.02187,-8.93637 21.87038,6.74748 -11.84851,2.18889 z m 9.63925,5.2189 -125.72134,56.45075 3.97481,-17.50062 122.46855,-42.92555 -0.72202,3.97542 z m -210.88498,-1.64151 9.85895,0.34188 c 0,0 29.99772,15.29075 69.7143,20.98174 l 7.31645,19.57904 -86.8897,-40.90266 z m -3.23735,-1.61066 -29.67188,-14.84396 53.31953,10.49766 -23.64765,4.3463 z m -11.17833,17.0526 10.88396,-16.03745 3.67613,7.79842 -14.56009,8.23903 z M 821.61788,720.6838 c 0,8.7321 -7.09059,15.81652 -15.81653,15.81652 -8.7358,0 -15.81344,-7.08442 -15.81344,-15.81652 0,-8.72594 7.07764,-15.80419 15.81344,-15.80419 8.72594,0 15.81653,7.07825 15.81653,15.80419 z m -30.65864,52.08408 -8.08722,6.00447 -33.23754,-5.56633 -1.32802,-0.96269 43.28224,-3.03001 6.21429,-25.71497 c -8.43712,-2.6042 -15.90971,-12.03364 -15.90971,-22.72816 0,-13.24935 10.74635,-23.98706 23.99447,-23.98706 2.86956,0 3.90013,0.53071 5.07264,1.8575 -5.86254,0.006 -13.68564,1.69705 -15.38702,6.43028 -5.10103,3.35708 -8.47847,9.12706 -8.47847,15.69928 0,9.50349 7.06097,17.3593 16.2195,18.60587 0.83927,0.11725 1.76494,2.74614 3.62861,2.74614 12.13238,0 20.56827,-9.28751 20.56827,-21.4384 0,-4.62833 -1.56746,-9.87993 -4.44319,-13.03954 -3.46199,-3.83842 -1.22188,-3.95567 -3.57307,-9.35538 7.84347,4.2272 12.92229,12.34837 12.92229,22.48131 0,14.39101 -11.34248,26.38145 -25.283,26.64681 -2.561,0.0555 -3.37559,-2.30182 -4.84061,-2.30182 l -5.26209,24.53629 39.13772,2.31416 -1.8143,0.95035 -39.61846,6.51668 c -11.11538,50.98563 -32.70436,152.82358 -32.70436,152.82358 l -17.35868,18.89405 46.28571,-178.38241 z m 113.6229,121.27567 -60.88406,3.30463 -0.52455,1.03427 8.75679,8.67102 -0.51837,2.21542 c 0,0 -52.17479,20.92867 -86.00723,20.92867 l 31.04372,-148.28412 60.11021,-10.90433 0.0432,-1.01206 -55.61209,-5.66507 2.87388,-14.59465 c 0,0 1.01206,-0.0247 1.90687,-0.0247 15.99549,0 28.96714,-12.95931 28.96714,-28.96714 0,-15.99549 -12.97165,-28.96714 -28.96714,-28.96714 -16.00228,0 -28.97084,12.97165 -28.97084,28.96714 0,11.63869 6.86288,21.66673 15.80603,25.98033 l -4.91528,16.97669 -64.24423,6.01065 0,0.77139 59.042,10.3983 -46.84729,148.73831 c -19.40008,0 -63.15688,-16.89832 -63.15688,-16.89832 l -0.36903,-1.76926 8.45625,-5.14176 -0.43629,-1.26075 -60.96368,-11.54181 -0.96392,0.88493 21.40569,35.74425 1.81739,0.46036 16.28121,-9.23752 2.38205,0 80.57357,52.08285 120.88999,-55.45042 2.4561,0.23882 10.8673,8.81542 1.76494,-0.22216 28.96714,-31.17825 -1.03058,-1.10401"
         id="path3088"
         style="fill:#fff;fill-opacity:1;fill-rule:evenodd;stroke:none" />
    </g>
  </g>
</svg>
