<?xml version="1.0" encoding="UTF-8" standalone="no"?>
<svg width="45px" height="45px" viewBox="0 0 45 45" version="1.1" xmlns="http://www.w3.org/2000/svg" xmlns:xlink="http://www.w3.org/1999/xlink" xmlns:sketch="http://www.bohemiancoding.com/sketch/ns">
    <!-- Generator: Sketch 3.3 (11970) - http://www.bohemiancoding.com/sketch -->
    <title>Fill 83</title>
    <desc>Created with Sketch.</desc>
    <defs></defs>
    <g id="Page-1" stroke="none" stroke-width="1" fill="none" fill-rule="evenodd" sketch:type="MSPage">
        <g id="outline" sketch:type="MSLayerGroup" transform="translate(-721.000000, -701.000000)" fill="#FFFFFF">
            <path d="M734.143,719.231 L725.43,719.235 C725.43,719.235 725.307,719.222 725.105,719.222 C724.457,719.222 723.236,719.361 722.353,720.298 C721.671,721.023 721.361,722.044 721.437,723.332 C721.65,726.96 722.652,741.17 722.659,741.261 C722.659,742.812 723.596,745.747 727.143,745.747 L734.459,745.746 C734.473,745.747 734.506,745.747 734.518,745.747 C735.297,745.747 736.617,745.226 736.617,743.271 L736.617,722.432 C736.686,722.075 736.837,720.94 736.171,720.092 C735.861,719.699 735.259,719.231 734.143,719.231 L734.143,719.231 Z M735.138,722.176 C735.124,722.233 735.117,722.293 735.117,722.352 L735.117,743.271 C735.117,744.119 734.741,744.247 734.518,744.247 L734.518,744.997 L734.498,744.247 L727.143,744.247 C724.269,744.247 724.162,741.563 724.158,741.208 C724.148,741.065 723.148,726.864 722.936,723.244 C722.885,722.384 723.057,721.739 723.445,721.327 C723.959,720.78 724.777,720.722 725.105,720.722 C725.199,720.722 725.26,720.727 725.35,720.731 L734.143,720.731 C734.555,720.731 734.838,720.827 734.99,721.017 C735.252,721.347 735.183,721.982 735.138,722.176 L735.138,722.176 Z M763.941,723.858 C763.838,723.812 763.733,723.771 763.629,723.731 C764.393,723.252 765.152,722.452 765.152,721.073 C765.152,720.131 764.866,719.384 764.301,718.854 C763.432,718.031 762.215,717.968 761.863,717.968 L755.213,717.968 C755.104,717.968 754.867,717.849 754.834,717.837 C754.621,716.664 754.377,715.335 755.523,713.059 C756.09,711.932 756.066,709.649 755.466,707.382 C754.904,705.237 753.893,703.332 752.613,702.018 C752.588,701.991 752.56,701.968 752.533,701.945 C752.249,701.727 751.227,701.032 750.05,701.239 C749.281,701.374 748.636,701.846 748.129,702.641 C748.053,702.762 748.012,702.901 748.012,703.044 L748.004,708.409 C747.933,709.097 747.679,710.496 747.168,711.385 C746.783,712.058 744.965,715.01 743.266,717.619 C741.671,720.068 741.078,720.824 740.863,721.06 C740.166,721.835 738.736,721.914 737.945,721.884 C737.553,721.882 737.184,722.196 737.171,722.61 C737.158,723.024 737.484,723.37 737.898,723.384 C739.179,723.422 740.93,723.227 741.977,722.066 C742.406,721.594 743.262,720.373 744.523,718.437 C746.123,715.978 748.021,712.915 748.471,712.131 C749.236,710.797 749.459,708.923 749.479,708.659 C749.508,708.539 749.512,708.431 749.512,708.349 L749.512,703.276 C749.754,702.951 750.017,702.768 750.309,702.716 C750.85,702.622 751.416,702.989 751.579,703.105 C752.661,704.236 753.524,705.887 754.016,707.764 C754.572,709.871 754.518,711.718 754.184,712.385 C752.812,715.11 753.129,716.842 753.359,718.107 C753.52,718.983 754.558,719.468 755.213,719.468 L761.863,719.468 C762.199,719.468 762.874,719.568 763.273,719.946 C763.528,720.185 763.652,720.554 763.652,721.073 C763.652,722.14 762.858,722.53 761.9,722.897 L761.713,722.971 C761.508,723.053 760.881,723.303 760.924,723.934 C760.969,724.569 761.558,724.714 762.127,724.853 C762.484,724.941 762.928,725.05 763.33,725.228 C763.85,725.461 764.539,726.551 764.428,727.579 C764.287,728.85 762.988,729.376 761.921,729.595 C761.25,729.735 761.004,730.172 760.995,730.533 C760.99,730.821 761.112,731.338 762.014,731.568 C762.183,731.617 762.711,732.153 762.742,732.86 C762.783,733.82 761.838,734.392 761.031,734.705 C760.982,734.725 760.937,734.739 760.894,734.752 C760.652,734.83 760.146,734.992 760.004,735.654 C759.848,736.341 760.451,736.682 760.679,736.81 C761.041,737.015 761.417,737.227 761.417,738.224 C761.417,738.55 761.329,738.868 761.152,739.17 C760.973,739.477 760.516,739.816 760.268,739.999 C759.816,740.336 758.799,740.758 758.29,740.865 L758.187,740.887 C754.903,741.556 750.804,742.388 744.671,742.302 C741.455,742.253 739.66,741.318 738.798,740.87 C738.293,740.607 737.928,740.419 737.507,740.635 C737.15,740.815 737.036,741.228 737.197,741.594 C737.354,741.945 737.785,742.107 738.15,741.988 C737.975,742.066 737.814,742.048 737.752,742.026 C737.834,742.055 737.949,742.119 738.105,742.2 C739.07,742.702 741.079,743.747 744.648,743.802 C744.955,743.806 745.254,743.808 745.55,743.808 C751.359,743.808 755.296,743.007 758.487,742.356 L758.595,742.334 C759.287,742.187 760.514,741.686 761.162,741.203 C761.623,740.863 762.139,740.455 762.449,739.925 C762.76,739.391 762.918,738.818 762.918,738.224 C762.918,736.974 762.466,736.303 762.019,735.913 C764.049,734.96 764.287,733.537 764.237,732.742 C764.191,732 763.844,731.252 763.362,730.738 C765.356,729.975 765.826,728.582 765.918,727.743 C766.106,726.032 765.049,724.353 763.941,723.858 L763.941,723.858 Z" id="Fill-83" sketch:type="MSShapeGroup"></path>
        </g>
    </g>
</svg>