<?xml version="1.0" encoding="UTF-8" standalone="no"?>
<svg width="39px" height="32px" viewBox="0 0 39 32" version="1.1" xmlns="http://www.w3.org/2000/svg" xmlns:xlink="http://www.w3.org/1999/xlink" xmlns:sketch="http://www.bohemiancoding.com/sketch/ns">
    <!-- Generator: Sketch 3.3 (11970) - http://www.bohemiancoding.com/sketch -->
    <title>Fill 46</title>
    <desc>Created with Sketch.</desc>
    <defs></defs>
    <g id="Page-1" stroke="none" stroke-width="1" fill="none" fill-rule="evenodd" sketch:type="MSPage">
        <g id="outline" sketch:type="MSLayerGroup" transform="translate(-574.000000, -931.000000)" fill="#FFFFFF">
            <path d="M589.447,946.218 L597.716,946.218 C598.131,946.218 598.467,945.882 598.467,945.468 C598.467,945.054 598.131,944.718 597.716,944.718 L589.447,944.718 C589.033,944.718 588.696,945.054 588.696,945.468 C588.696,945.882 589.033,946.218 589.447,946.218 L589.447,946.218 Z M612.016,931.28 L575.148,931.28 C574.734,931.28 574.398,931.616 574.398,932.03 L574.398,940.472 C574.398,940.886 574.734,941.222 575.148,941.222 L576.605,941.222 L576.605,961.311 C576.605,961.726 576.941,962.061 577.355,962.061 L609.807,962.061 C610.221,962.061 610.557,961.726 610.557,961.311 L610.557,941.222 L612.016,941.222 C612.429,941.222 612.766,940.886 612.766,940.472 L612.766,932.03 C612.766,931.616 612.429,931.28 612.016,931.28 L612.016,931.28 Z M578.105,941.257 L609.056,941.257 L609.056,960.562 L578.105,960.562 L578.105,941.257 Z M575.898,932.78 L611.265,932.78 L611.265,939.721 L575.898,939.721 L575.898,932.78 Z" id="Fill-46" sketch:type="MSShapeGroup"></path>
        </g>
    </g>
</svg>