<?xml version="1.0" encoding="UTF-8" standalone="no"?>
<svg width="43px" height="44px" viewBox="0 0 43 44" version="1.1" xmlns="http://www.w3.org/2000/svg" xmlns:xlink="http://www.w3.org/1999/xlink" xmlns:sketch="http://www.bohemiancoding.com/sketch/ns">
    <!-- Generator: Sketch 3.3 (11970) - http://www.bohemiancoding.com/sketch -->
    <title>Fill 158</title>
    <desc>Created with Sketch.</desc>
    <defs></defs>
    <g id="Page-1" stroke="none" stroke-width="1" fill="none" fill-rule="evenodd" sketch:type="MSPage">
        <g id="outline" sketch:type="MSLayerGroup" transform="translate(-950.000000, -252.000000)" fill="#FFFFFF">
            <path d="M971.341,252.84 C959.633,252.84 950.107,262.363 950.107,274.068 C950.107,285.775 959.633,295.299 971.341,295.299 C983.048,295.299 992.572,285.775 992.572,274.068 C992.572,262.363 983.048,252.84 971.341,252.84 L971.341,252.84 Z M971.977,293.767 L971.977,290.593 C971.977,290.179 971.641,289.843 971.227,289.843 C970.813,289.843 970.476,290.179 970.476,290.593 L970.476,293.755 C960.229,293.308 952.004,285.031 951.643,274.765 L954.981,274.765 C955.394,274.765 955.731,274.429 955.731,274.015 C955.731,273.601 955.394,273.265 954.981,273.265 L951.648,273.265 C952.063,263.044 960.274,254.819 970.494,254.383 C970.491,254.413 970.476,254.439 970.476,254.471 L970.476,257.81 C970.476,258.225 970.813,258.56 971.227,258.56 C971.641,258.56 971.977,258.225 971.977,257.81 L971.977,254.471 C971.977,254.435 971.961,254.405 971.955,254.371 C982.281,254.691 990.613,262.966 991.031,273.265 L987.766,273.265 C987.352,273.265 987.016,273.601 987.016,274.015 C987.016,274.429 987.352,274.765 987.766,274.765 L991.037,274.765 C990.674,285.107 982.328,293.435 971.977,293.767 L971.977,293.767 Z M979.528,267.513 L972.742,272.264 C972.334,271.937 971.824,271.733 971.262,271.733 C971.008,271.733 970.767,271.784 970.537,271.857 L964.488,263.245 C964.252,262.907 963.785,262.824 963.443,263.063 C963.104,263.301 963.023,263.769 963.262,264.107 L969.323,272.737 C969.043,273.129 968.873,273.604 968.873,274.122 C968.873,275.438 969.943,276.509 971.262,276.509 C972.578,276.509 973.648,275.438 973.648,274.122 C973.648,273.913 973.613,273.714 973.563,273.521 L980.388,268.741 C980.729,268.504 980.81,268.036 980.573,267.696 C980.336,267.357 979.869,267.275 979.528,267.513 L979.528,267.513 Z M971.262,275.009 C970.771,275.009 970.373,274.611 970.373,274.122 C970.373,273.632 970.771,273.233 971.262,273.233 C971.75,273.233 972.148,273.632 972.148,274.122 C972.148,274.611 971.75,275.009 971.262,275.009 L971.262,275.009 Z" id="Fill-158" sketch:type="MSShapeGroup"></path>
        </g>
    </g>
</svg>