<?xml version="1.0" encoding="UTF-8" standalone="no"?>
<svg width="30px" height="41px" viewBox="0 0 30 41" version="1.1" xmlns="http://www.w3.org/2000/svg" xmlns:xlink="http://www.w3.org/1999/xlink" xmlns:sketch="http://www.bohemiancoding.com/sketch/ns">
    <!-- Generator: Sketch 3.3 (11970) - http://www.bohemiancoding.com/sketch -->
    <title>Fill 73</title>
    <desc>Created with Sketch.</desc>
    <defs></defs>
    <g id="Page-1" stroke="none" stroke-width="1" fill="none" fill-rule="evenodd" sketch:type="MSPage">
        <g id="outline" sketch:type="MSLayerGroup" transform="translate(-502.000000, -778.000000)" fill="#FFFFFF">
            <path d="M527.408,805.124 L506.653,805.124 C506.24,805.124 505.903,805.46 505.903,805.874 C505.903,806.288 506.24,806.624 506.653,806.624 L527.408,806.624 C527.823,806.624 528.158,806.288 528.158,805.874 C528.158,805.46 527.823,805.124 527.408,805.124 L527.408,805.124 Z M523.654,790.776 L531.253,790.776 C531.259,790.775 531.266,790.775 531.272,790.776 C531.686,790.776 532.022,790.44 532.022,790.026 C532.022,789.769 531.892,789.541 531.694,789.406 L521.016,778.568 C520.803,778.352 520.48,778.288 520.197,778.4 C519.916,778.517 519.732,778.79 519.732,779.095 L519.732,786.854 C519.732,789.017 521.491,790.776 523.654,790.776 L523.654,790.776 Z M521.232,780.925 L529.461,789.276 L523.654,789.276 C522.318,789.276 521.232,788.189 521.232,786.854 L521.232,780.925 L521.232,780.925 Z M527.408,810.227 L506.653,810.227 C506.24,810.227 505.903,810.563 505.903,810.977 C505.903,811.392 506.24,811.727 506.653,811.727 L527.408,811.727 C527.823,811.727 528.158,811.392 528.158,810.977 C528.158,810.563 527.823,810.227 527.408,810.227 L527.408,810.227 Z M506.653,786.206 L516.183,786.206 C516.596,786.206 516.932,785.87 516.932,785.456 C516.932,785.042 516.596,784.706 516.183,784.706 L506.653,784.706 C506.24,784.706 505.903,785.042 505.903,785.456 C505.903,785.87 506.24,786.206 506.653,786.206 L506.653,786.206 Z M531.253,791.134 C530.838,791.134 530.502,791.47 530.502,791.884 L530.502,813.903 C530.502,815.373 529.307,816.569 527.837,816.569 L506.224,816.569 C504.756,816.569 503.561,815.373 503.561,813.903 L503.563,782.435 C503.608,780.982 504.777,779.845 506.224,779.845 L518.631,779.845 C519.045,779.845 519.381,779.509 519.381,779.095 C519.381,778.681 519.045,778.345 518.631,778.345 L506.224,778.345 C503.961,778.345 502.134,780.121 502.064,782.411 L502.061,813.903 C502.061,816.2 503.929,818.069 506.224,818.069 L527.837,818.069 C530.134,818.069 532.002,816.2 532.002,813.903 L532.002,791.884 C532.002,791.47 531.666,791.134 531.253,791.134 L531.253,791.134 Z M506.653,791.31 L516.183,791.31 C516.596,791.31 516.932,790.974 516.932,790.56 C516.932,790.145 516.596,789.81 516.183,789.81 L506.653,789.81 C506.24,789.81 505.903,790.145 505.903,790.56 C505.903,790.974 506.24,791.31 506.653,791.31 L506.653,791.31 Z M527.408,794.915 L506.653,794.915 C506.24,794.915 505.903,795.251 505.903,795.665 C505.903,796.079 506.24,796.415 506.653,796.415 L527.408,796.415 C527.823,796.415 528.158,796.079 528.158,795.665 C528.158,795.251 527.823,794.915 527.408,794.915 L527.408,794.915 Z M527.408,800.019 L506.653,800.019 C506.24,800.019 505.903,800.354 505.903,800.769 C505.903,801.183 506.24,801.519 506.653,801.519 L527.408,801.519 C527.823,801.519 528.158,801.183 528.158,800.769 C528.158,800.354 527.823,800.019 527.408,800.019 L527.408,800.019 Z" id="Fill-73" sketch:type="MSShapeGroup"></path>
        </g>
    </g>
</svg>