<?xml version="1.0" encoding="UTF-8" standalone="no"?>
<svg width="51px" height="33px" viewBox="0 0 51 33" version="1.1" xmlns="http://www.w3.org/2000/svg" xmlns:xlink="http://www.w3.org/1999/xlink" xmlns:sketch="http://www.bohemiancoding.com/sketch/ns">
    <!-- Generator: Sketch 3.3 (11970) - http://www.bohemiancoding.com/sketch -->
    <title>Fill 41</title>
    <desc>Created with Sketch.</desc>
    <defs></defs>
    <g id="Page-1" stroke="none" stroke-width="1" fill="none" fill-rule="evenodd" sketch:type="MSPage">
        <g id="outline" sketch:type="MSLayerGroup" transform="translate(-946.000000, -930.000000)" fill="#FFFFFF">
            <path d="M996.644,931.243 C996.634,931.193 996.617,931.147 996.598,931.1 C996.582,931.063 996.566,931.028 996.547,930.995 C996.539,930.982 996.535,930.967 996.527,930.954 C996.508,930.929 996.483,930.912 996.462,930.89 C996.434,930.858 996.408,930.829 996.377,930.804 C996.338,930.773 996.297,930.752 996.255,930.73 C996.223,930.713 996.19,930.694 996.154,930.682 C996.102,930.664 996.049,930.658 995.994,930.652 C995.967,930.649 995.943,930.638 995.916,930.638 L995.914,930.638 L946.76,930.724 C946.471,930.725 946.207,930.892 946.083,931.154 C945.959,931.416 945.998,931.727 946.182,931.95 L954.841,942.476 L953.824,952.237 C953.797,952.502 953.91,952.761 954.123,952.918 C954.256,953.016 954.412,953.065 954.57,953.065 C954.668,953.065 954.768,953.046 954.862,953.006 L960.87,950.462 L968.333,962.352 C968.458,962.553 968.671,962.683 968.908,962.701 C968.929,962.703 968.947,962.704 968.969,962.704 C969.182,962.704 969.389,962.612 969.531,962.45 L996.479,931.884 C996.49,931.87 996.495,931.853 996.506,931.839 C996.529,931.807 996.55,931.773 996.568,931.738 C996.591,931.695 996.611,931.654 996.625,931.608 C996.636,931.573 996.643,931.539 996.648,931.502 C996.656,931.45 996.658,931.4 996.656,931.349 C996.654,931.328 996.662,931.31 996.658,931.289 C996.656,931.272 996.646,931.26 996.644,931.243 L996.644,931.243 Z M948.348,932.221 L990.211,932.147 L955.891,941.392 L948.348,932.221 L948.348,932.221 Z M956.312,942.832 L984.274,935.301 L958.979,945.562 C958.787,945.591 958.608,945.691 958.486,945.858 L955.587,949.788 L956.312,942.832 L956.312,942.832 Z M956.922,950.505 L959.07,947.594 L960.063,949.176 L956.922,950.505 L956.922,950.505 Z M969.07,960.705 L960.256,946.662 L993.249,933.279 L969.07,960.705 L969.07,960.705 Z" id="Fill-41" sketch:type="MSShapeGroup"></path>
        </g>
    </g>
</svg>